<svg width="42" height="49" viewBox="0 0 42 49" fill="none" xmlns="http://www.w3.org/2000/svg">
<path d="M12.5227 31.2159C11.9015 31.2159 11.3674 30.9962 10.9205 30.5568C10.4735 30.1098 10.25 29.572 10.25 28.9432C10.25 28.322 10.4735 27.7917 10.9205 27.3523C11.3674 26.9053 11.9015 26.6818 12.5227 26.6818C13.1439 26.6818 13.678 26.9053 14.125 27.3523C14.572 27.7917 14.7955 28.322 14.7955 28.9432C14.7955 29.3598 14.6894 29.7424 14.4773 30.0909C14.2727 30.4318 14 30.7045 13.6591 30.9091C13.3182 31.1136 12.9394 31.2159 12.5227 31.2159ZM21.5852 31.2159C20.964 31.2159 20.4299 30.9962 19.983 30.5568C19.536 30.1098 19.3125 29.572 19.3125 28.9432C19.3125 28.322 19.536 27.7917 19.983 27.3523C20.4299 26.9053 20.964 26.6818 21.5852 26.6818C22.2064 26.6818 22.7405 26.9053 23.1875 27.3523C23.6345 27.7917 23.858 28.322 23.858 28.9432C23.858 29.3598 23.7519 29.7424 23.5398 30.0909C23.3352 30.4318 23.0625 30.7045 22.7216 30.9091C22.3807 31.1136 22.0019 31.2159 21.5852 31.2159ZM30.6477 31.2159C30.0265 31.2159 29.4924 30.9962 29.0455 30.5568C28.5985 30.1098 28.375 29.572 28.375 28.9432C28.375 28.322 28.5985 27.7917 29.0455 27.3523C29.4924 26.9053 30.0265 26.6818 30.6477 26.6818C31.2689 26.6818 31.803 26.9053 32.25 27.3523C32.697 27.7917 32.9205 28.322 32.9205 28.9432C32.9205 29.3598 32.8144 29.7424 32.6023 30.0909C32.3977 30.4318 32.125 30.7045 31.7841 30.9091C31.4432 31.1136 31.0644 31.2159 30.6477 31.2159Z" fill="#264F95"/>
<circle cx="21" cy="28" r="19.5" stroke="#264F95" stroke-width="3"/>
</svg>
