<svg width="31" height="47" viewBox="0 0 31 47" fill="none" xmlns="http://www.w3.org/2000/svg">
<path d="M29.5 15.117C29.5 16.8656 28.6528 19.6489 27.2001 23.0285C25.7761 26.3411 23.8664 30.0148 21.9409 33.457C20.0181 36.8944 18.0933 40.0762 16.6481 42.4002C16.2184 43.0911 15.8315 43.7057 15.5 44.2281C15.1685 43.7057 14.7816 43.0911 14.3519 42.4002C12.9067 40.0762 10.9819 36.8944 9.0591 33.457C7.13357 30.0148 5.22395 26.3411 3.79994 23.0285C2.34718 19.6489 1.5 16.8656 1.5 15.117C1.5 7.63168 7.73241 1.5 15.5 1.5C23.2676 1.5 29.5 7.63168 29.5 15.117Z" stroke="#264F95" stroke-width="3"/>
<path d="M20.5 18C20.5 20.3745 18.3767 22.5 15.5 22.5C12.6233 22.5 10.5 20.3745 10.5 18C10.5 15.6255 12.6233 13.5 15.5 13.5C18.3767 13.5 20.5 15.6255 20.5 18Z" fill="white" stroke="#264F95" stroke-width="3"/>
</svg>
